<?xml version="1.0" standalone="no"?>
<!DOCTYPE svg PUBLIC "-//W3C//DTD SVG 20010904//EN"
 "http://www.w3.org/TR/2001/REC-SVG-20010904/DTD/svg10.dtd">
<svg width="193" height="52" viewBox="0 0 193 52" fill="none" xmlns="http://www.w3.org/2000/svg">
<metadata>
Created by potrace 1.16, written by Peter Selinger 2001-2019
</metadata>
<g transform="translate(0.000000,500.000000) scale(0.100000,-0.100000)"
fill="black" stroke="none">
<path d="M0 2500 l0 -2500 2500 0 2500 0 0 2500 0 2500 -2500 0 -2500 0 0
-2500z m3085 1049 c281 -133 526 -253 545 -269 19 -15 47 -51 63 -80 l27 -52
0 -652 c0 -612 -2 -653 -19 -692 -38 -83 -62 -97 -603 -354 -482 -229 -517
-244 -579 -248 -83 -5 -63 -13 -649 263 -400 190 -471 226 -511 266 -83 81
-80 54 -77 790 l3 644 28 47 c15 26 42 58 60 72 38 29 942 458 1037 493 109
39 105 41 675 -228z"/>
<path d="M1940 3489 c-283 -134 -517 -251 -533 -267 -65 -61 -62 -25 -64 -707
-3 -697 -3 -691 67 -746 49 -38 1025 -500 1071 -506 20 -3 53 0 73 7 71 23
1019 480 1044 502 13 13 33 41 43 63 17 38 19 79 19 661 l0 620 -26 52 c-18
37 -38 59 -68 77 -23 14 -260 128 -527 255 -452 214 -488 230 -539 229 -51 0
-94 -18 -560 -240z m709 -230 c78 -112 163 -233 188 -269 l45 -65 -49 50 c-26
28 -83 88 -125 134 l-76 84 -14 -28 -14 -27 -51 55 -50 56 -39 -40 -39 -40
-21 26 -21 27 -97 -141 -98 -140 -55 59 c-56 61 -73 71 -73 45 0 -22 -10 -19
-64 20 -27 19 -54 35 -59 35 -5 0 -35 -16 -67 -35 -66 -40 -67 -40 -72 -20 -2
12 -19 5 -68 -28 -36 -24 -78 -52 -95 -63 -29 -18 154 183 268 295 l55 54 89
-114 c134 -172 139 -177 156 -159 8 8 74 111 147 228 72 117 137 211 144 209
6 -2 76 -95 155 -208z m-1029 -888 c0 -6 -17 -11 -37 -13 l-38 -3 42 -5 c23
-3 41 -3 41 0 -2 19 5 21 22 5 40 -36 9 -63 -34 -30 -21 16 -55 11 -68 -9 -4
-6 -8 -25 -8 -43 0 -36 28 -58 60 -48 26 8 25 21 0 28 -11 3 -20 12 -20 21 0
13 11 16 50 16 44 0 50 -3 50 -21 0 -25 -18 -60 -39 -76 -26 -20 -95 -16 -124
7 -51 40 -44 135 12 165 29 16 91 20 91 6z m278 -16 c51 -43 48 -125 -7 -158
-75 -44 -161 0 -161 83 0 88 100 133 168 75z m327 0 c0 -16 -8 -21 -37 -23
-47 -4 -50 -20 -5 -24 24 -2 33 -8 35 -25 3 -20 -1 -23 -31 -23 -25 0 -36 -5
-39 -17 -4 -15 2 -18 36 -18 35 0 41 -3 44 -22 3 -21 0 -23 -47 -23 -56 0 -70
16 -18 23 26 3 25 4 -8 3 -26 0 -42 -6 -47 -16 -4 -8 -7 31 -7 88 l-1 103 63
-3 c54 -3 62 -5 62 -23z m128 -7 c16 -18 26 -28 23 -22 -9 18 19 47 47 50 32
3 33 -3 6 -36 -11 -14 -17 -19 -13 -11 5 10 3 12 -5 7 -7 -4 -10 -13 -8 -19 2
-7 0 -23 -5 -37 -5 -13 -6 -21 -2 -17 7 7 13 0 49 -55 l17 -28 -31 0 c-24 0
-34 6 -47 32 l-16 31 -20 -31 c-15 -24 -27 -32 -50 -32 l-30 0 22 33 c44 67
45 73 16 117 -32 48 -32 50 -3 50 13 0 34 -14 50 -32z m291 11 c57 -45 14
-136 -61 -127 -30 4 -31 2 -26 -24 4 -18 1 -28 -6 -28 -7 0 -9 5 -6 10 3 6 1
10 -4 10 -6 0 -11 -4 -11 -10 0 -5 -4 -10 -10 -10 -6 0 -10 40 -10 100 l0 100
54 0 c39 0 60 -6 80 -21z m424 -4 c51 -43 48 -125 -7 -158 -75 -44 -161 0
-161 83 0 88 100 133 168 75z m216 15 c32 -12 43 -52 27 -96 -10 -28 -10 -38
3 -56 22 -32 20 -38 -13 -38 -22 0 -30 5 -30 18 -1 65 -4 72 -25 71 -18 -1
-19 -2 -2 -6 17 -4 16 -6 -5 -17 -13 -6 -25 -18 -25 -26 -1 -8 -2 -21 -3 -27
0 -7 -12 -13 -26 -13 -25 0 -25 0 -25 93 0 52 3 97 7 100 10 10 88 8 117 -3z
m231 -15 c0 -16 -8 -21 -37 -23 -47 -4 -50 -20 -5 -24 24 -2 33 -8 35 -25 3
-20 -1 -23 -31 -23 -25 0 -36 -5 -39 -17 -4 -15 2 -18 36 -18 35 0 41 -3 44
-22 3 -21 0 -23 -47 -23 -56 0 -70 16 -18 23 26 3 25 4 -8 3 -26 0 -42 -6 -47
-16 -4 -8 -7 31 -7 88 l-1 103 63 -3 c54 -3 62 -5 62 -23z"/>
</g>
<rect width="193" height="52" fill="white"/>
</svg>
